<svg width="16" height="17" viewBox="0 0 16 17" fill="none" xmlns="http://www.w3.org/2000/svg">
<path d="M1.5 0.209473C1.20333 0.209473 0.913319 0.317221 0.666645 0.519093C0.419972 0.720965 0.227713 1.00789 0.114181 1.34359C0.000649929 1.6793 -0.0290551 2.04869 0.0288228 2.40507C0.0867006 2.76145 0.229562 3.0888 0.439341 3.34574C0.649119 3.60267 0.916394 3.77764 1.20737 3.84853C1.49834 3.91942 1.79994 3.88304 2.07403 3.74399C2.34812 3.60493 2.58238 3.36946 2.74721 3.06734C2.91203 2.76521 3 2.41001 3 2.04665C3 1.5594 2.84197 1.09211 2.56066 0.74757C2.27936 0.403032 1.89783 0.209473 1.5 0.209473ZM1.5 6.33341C1.20333 6.33341 0.913319 6.44115 0.666645 6.64303C0.419972 6.8449 0.227713 7.13183 0.114181 7.46753C0.000649929 7.80323 -0.0290551 8.17262 0.0288228 8.529C0.0867006 8.88538 0.229562 9.21273 0.439341 9.46967C0.649119 9.7266 0.916394 9.90158 1.20737 9.97247C1.49834 10.0434 1.79994 10.007 2.07403 9.86792C2.34812 9.72887 2.58238 9.49339 2.74721 9.19127C2.91203 8.88915 3 8.53395 3 8.17059C3 7.68334 2.84197 7.21604 2.56066 6.8715C2.27936 6.52697 1.89783 6.33341 1.5 6.33341ZM1.5 12.4573C1.20333 12.4573 0.913319 12.5651 0.666645 12.767C0.419972 12.9688 0.227713 13.2558 0.114181 13.5915C0.000649929 13.9272 -0.0290551 14.2966 0.0288228 14.6529C0.0867006 15.0093 0.229562 15.3367 0.439341 15.5936C0.649119 15.8505 0.916394 16.0255 1.20737 16.0964C1.49834 16.1673 1.79994 16.1309 2.07403 15.9919C2.34812 15.8528 2.58238 15.6173 2.74721 15.3152C2.91203 15.0131 3 14.6579 3 14.2945C3 13.8073 2.84197 13.34 2.56066 12.9954C2.27936 12.6509 1.89783 12.4573 1.5 12.4573ZM15.5 13.0697H5.5C5.36739 13.0697 5.24022 13.1343 5.14645 13.2491C5.05268 13.3639 5 13.5197 5 13.6821V14.9069C5 15.0693 5.05268 15.2251 5.14645 15.3399C5.24022 15.4548 5.36739 15.5193 5.5 15.5193H15.5C15.6326 15.5193 15.7598 15.4548 15.8536 15.3399C15.9473 15.2251 16 15.0693 16 14.9069V13.6821C16 13.5197 15.9473 13.3639 15.8536 13.2491C15.7598 13.1343 15.6326 13.0697 15.5 13.0697ZM15.5 0.821866H5.5C5.36739 0.821866 5.24022 0.886386 5.14645 1.00123C5.05268 1.11608 5 1.27184 5 1.43426V2.65905C5 2.82146 5.05268 2.97723 5.14645 3.09207C5.24022 3.20692 5.36739 3.27144 5.5 3.27144H15.5C15.6326 3.27144 15.7598 3.20692 15.8536 3.09207C15.9473 2.97723 16 2.82146 16 2.65905V1.43426C16 1.27184 15.9473 1.11608 15.8536 1.00123C15.7598 0.886386 15.6326 0.821866 15.5 0.821866V0.821866ZM15.5 6.9458H5.5C5.36739 6.9458 5.24022 7.01032 5.14645 7.12517C5.05268 7.24001 5 7.39578 5 7.55819V8.78298C5 8.9454 5.05268 9.10116 5.14645 9.21601C5.24022 9.33085 5.36739 9.39537 5.5 9.39537H15.5C15.6326 9.39537 15.7598 9.33085 15.8536 9.21601C15.9473 9.10116 16 8.9454 16 8.78298V7.55819C16 7.39578 15.9473 7.24001 15.8536 7.12517C15.7598 7.01032 15.6326 6.9458 15.5 6.9458Z" fill="#7E7E7E"/>
</svg>
