<svg width="14" height="21" viewBox="0 0 14 21" fill="none" xmlns="http://www.w3.org/2000/svg">
<path d="M12.0483 0.542969H2.93523C1.85712 0.542969 0.982422 1.37873 0.982422 2.40885V18.5799C0.982422 19.61 1.85712 20.4458 2.93523 20.4458H12.0483C13.1265 20.4458 14.0012 19.61 14.0012 18.5799V2.40885C14.0012 1.37873 13.1265 0.542969 12.0483 0.542969ZM7.49179 19.2018C6.77169 19.2018 6.18992 18.646 6.18992 17.9579C6.18992 17.2699 6.77169 16.714 7.49179 16.714C8.21189 16.714 8.79366 17.2699 8.79366 17.9579C8.79366 18.646 8.21189 19.2018 7.49179 19.2018ZM12.0483 15.0036C12.0483 15.2601 11.8287 15.4701 11.5601 15.4701H3.42344C3.15492 15.4701 2.93523 15.2601 2.93523 15.0036V2.87533C2.93523 2.61877 3.15492 2.40885 3.42344 2.40885H11.5601C11.8287 2.40885 12.0483 2.61877 12.0483 2.87533V15.0036Z" fill="#7E7E7E"/>
</svg>
